<svg width="308" height="77" viewBox="0 0 308 77" fill="none" xmlns="http://www.w3.org/2000/svg">
<path d="M21.1233 37.7004V37.6524C22.1664 37.276 22.9961 36.6753 23.6045 35.8585C24.2209 35.0416 24.5291 34.0565 24.5291 32.9033C24.5291 31.7901 24.2367 30.805 23.6519 29.9481C23.0593 29.0912 22.2691 28.4345 21.2813 27.97C20.2857 27.5135 19.1794 27.2812 17.9783 27.2812H9.88672V48.0716H17.9783C19.1794 48.0716 20.2857 47.8393 21.2813 47.3829C22.2691 46.9184 23.0593 46.2616 23.6519 45.4047C24.2367 44.5478 24.5291 43.5627 24.5291 42.4496C24.5291 41.2963 24.2209 40.3113 23.6045 39.4944C22.9961 38.6775 22.1664 38.0769 21.1233 37.7004ZM13.656 30.757H17.8361C18.7448 30.757 19.456 30.9972 19.9696 31.4778C20.4832 31.9583 20.7361 32.5829 20.7361 33.3598C20.7361 34.1286 20.4753 34.7613 19.9538 35.2498C19.4323 35.7383 18.6895 35.9866 17.7255 35.9866H13.656V30.757V30.757ZM19.9696 43.8751C19.456 44.3556 18.7448 44.5959 17.8361 44.5959H13.656V39.3662H17.7255C18.6895 39.3662 19.4323 39.6145 19.9538 40.103C20.4753 40.5916 20.7361 41.2242 20.7361 41.9931C20.7361 42.7699 20.4832 43.3946 19.9696 43.8751Z" fill="white"/>
<path d="M26.3047 27.8477H33.053C35.1312 27.8477 36.9486 28.2721 38.4895 29.121C40.0304 29.9699 41.2236 31.1552 42.0612 32.6849C42.8988 34.2145 43.3176 35.9684 43.3176 37.9705C43.3176 39.9647 42.8988 41.7266 42.0612 43.2562C41.2236 44.7859 40.0383 45.9711 38.4895 46.8201C36.9486 47.669 35.1312 48.0934 33.053 48.0934H26.3047V27.8477V27.8477ZM32.887 44.4575C35.0443 44.4575 36.6879 43.8809 37.8178 42.7196C38.9478 41.5584 39.5168 39.9727 39.5168 37.9625C39.5168 35.9444 38.9478 34.3587 37.8178 33.2054C36.68 32.0442 35.0364 31.4675 32.887 31.4675H30.0739V44.4655H32.887V44.4575Z" fill="white"/>
<path fill-rule="evenodd" clip-rule="evenodd" d="M10.7923 3.89649L10.8072 3.90657L10.94 3.98348L10.9418 3.98453L61.8614 33.7611L61.9373 33.8123L62.0257 33.8507C63.7939 34.7512 64.0862 36.6536 64.0862 37.8206C64.0862 40.0807 62.4765 41.5764 61.3992 42.3216L10.9333 72.0705L10.93 72.0724L10.8587 72.1136L10.7933 72.1578C10.0484 72.6611 8.97666 72.8997 8.33426 72.8997C7.68485 72.8997 6.62385 72.6621 5.87883 72.1603L5.87517 72.1578L5.74257 72.0647L5.59063 71.9877C4.19335 71.2834 3.12656 69.4385 3.12656 67.6064V8.44C3.12656 6.13133 4.80388 4.624 5.87504 3.89728C6.59896 3.41098 7.4454 3.15527 8.33426 3.15527C9.22484 3.15527 10.0789 3.41189 10.7923 3.89649ZM67.2297 37.8206C67.2297 34.9087 65.9927 32.3242 63.439 31.0276L12.5218 1.26613C11.265 0.421084 9.80259 0 8.33426 0C6.8689 0 5.40134 0.424258 4.14181 1.27517C1.68161 2.93157 0 5.46074 0 8.44V67.6064C0 70.5365 1.63908 73.4961 4.16782 74.7887C5.42986 75.6317 7.08063 76.0464 8.34277 76.0464C9.61056 76.0464 11.2596 75.6282 12.5303 74.7802L63.0755 44.9938L63.0883 44.9852C65.5388 43.3295 67.2297 40.8007 67.2297 37.8206Z" fill="url(#paint0_linear_455_90)"/>
<path fill-rule="evenodd" clip-rule="evenodd" d="M85.1148 37.1325C83.2992 35.7082 82.112 34.1069 81.5621 32.3198C81.0122 30.5328 81.0034 28.8519 81.5359 27.2771C82.0684 25.7024 83.1071 24.3665 84.6609 23.2783C86.2147 22.1813 88.1874 21.6328 90.5705 21.6328H110.412C112.227 21.6328 113.702 23.1279 113.702 24.9681V24.9769C113.702 26.8171 112.227 28.3122 110.412 28.3122H90.5705C89.9245 28.3122 89.3571 28.4007 88.8683 28.5688C88.3707 28.7457 88.0303 28.9846 87.847 29.2853C87.655 29.595 87.6462 29.9577 87.8208 30.3824C87.9867 30.807 88.3969 31.267 89.0429 31.7625L104.729 43.803C106.545 45.1832 107.784 46.7579 108.448 48.5273C109.111 50.2966 109.224 51.951 108.788 53.5081C108.352 55.0651 107.4 56.3656 105.916 57.4272C104.441 58.48 102.486 59.0108 100.059 59.0108H79.5369C77.7213 59.0108 76.2461 57.5157 76.2461 55.6755V55.6667C76.2461 53.8265 77.7213 52.3314 79.5369 52.3314H100.059C101.534 52.3314 102.355 52.0572 102.503 51.4998C102.651 50.9425 102.102 50.2082 100.853 49.2793L85.1148 37.1325ZM114.263 30.3636C115.022 28.6208 116.044 27.0991 117.336 25.8163C118.627 24.5335 120.138 23.5162 121.883 22.7642C123.629 22.0122 125.497 21.6406 127.514 21.6406H140.642C142.458 21.6406 143.933 23.1357 143.933 24.9759V24.9847C143.933 26.8249 142.458 28.32 140.642 28.32H127.505C126.405 28.32 125.392 28.5235 124.467 28.9304C123.542 29.3374 122.713 29.8771 121.997 30.5494C121.281 31.2218 120.722 32.0268 120.321 32.9469C119.919 33.867 119.727 34.849 119.727 35.8929V48.827C119.727 49.7913 120.085 50.6141 120.81 51.313C121.525 52.0031 122.398 52.3569 123.42 52.3569H140.642C142.458 52.3569 143.933 53.852 143.933 55.6922V55.701C143.933 57.5412 142.458 59.0363 140.642 59.0363H123.42C121.979 59.0363 120.635 58.7709 119.387 58.2312C118.139 57.6916 117.047 56.9661 116.122 56.0461C115.197 55.126 114.464 54.0378 113.931 52.7904C113.399 51.543 113.137 50.2248 113.137 48.8447V35.9195C113.128 33.9643 113.503 32.1153 114.263 30.3636ZM151.234 25.7544C149.96 27.0814 148.973 28.665 148.275 30.5052C147.577 32.3542 147.227 34.3889 147.219 36.6095V55.6745C147.219 57.5146 148.694 59.0098 150.51 59.0098H150.518C152.334 59.0098 153.809 57.5146 153.809 55.6745V36.6095C153.809 34.1501 154.542 32.1595 156 30.6202C157.458 29.0897 159.387 28.32 161.77 28.32H167.968C169.783 28.32 171.259 26.8249 171.259 24.9847V24.9759C171.259 23.1357 169.783 21.6406 167.968 21.6406H161.77C159.614 21.6406 157.633 21.9945 155.834 22.7022C154.036 23.41 152.5 24.4274 151.234 25.7544ZM180.174 51.0122C181.466 51.8969 182.898 52.3392 184.495 52.3392H198.706C200.521 52.3392 201.997 53.8344 201.997 55.6745V55.6833C201.997 57.5235 200.521 59.0186 198.706 59.0186H184.495C182.566 59.0186 180.741 58.6382 179.039 57.8685C177.337 57.0988 175.836 56.0726 174.553 54.7898C173.261 53.507 172.248 51.9942 171.515 50.2691C170.773 48.5439 170.406 46.6949 170.406 44.7398V36.0433C170.406 34.0882 170.773 32.2303 171.515 30.4875C172.257 28.7447 173.269 27.2141 174.553 25.9048C175.836 24.6043 177.337 23.5604 179.039 22.7907C180.741 22.021 182.566 21.6406 184.495 21.6406H193.189C195.459 21.6406 197.318 22.1714 198.758 23.2242C200.198 24.277 201.141 25.5863 201.595 27.1434C202.049 28.7004 201.97 30.3459 201.368 32.0976C200.766 33.8493 199.587 35.4329 197.842 36.8484L180.174 51.0122ZM176.997 44.9609L193.818 31.6553C194.271 31.3102 194.629 30.9387 194.9 30.5317C195.162 30.1248 195.284 29.762 195.267 29.4347C195.249 29.1074 195.075 28.842 194.752 28.6296C194.429 28.4173 193.905 28.3112 193.189 28.3112H184.495C183.474 28.3112 182.505 28.5146 181.597 28.9127C180.689 29.3197 179.895 29.8594 179.214 30.5583C178.533 31.2483 177.992 32.0622 177.59 33.0088C177.189 33.9466 176.997 34.9551 176.997 36.0345V44.9609ZM218.71 52.3392C217.112 52.3392 215.672 51.8969 214.389 51.0122L232.056 36.8484C233.802 35.4329 234.981 33.8404 235.583 32.0976C236.185 30.3459 236.264 28.7004 235.81 27.1434C235.356 25.5863 234.413 24.277 232.973 23.2242C231.533 22.1714 229.673 21.6406 227.404 21.6406H218.71C216.781 21.6406 214.956 22.021 213.254 22.7907C211.552 23.5604 210.059 24.6043 208.767 25.9048C207.484 27.2141 206.472 28.7447 205.73 30.4875C204.988 32.2303 204.621 34.0882 204.621 36.0433V44.7398C204.621 46.6949 204.988 48.5439 205.73 50.2691C206.463 51.9942 207.475 53.507 208.767 54.7898C210.051 56.0726 211.552 57.0988 213.254 57.8685C214.956 58.6382 216.781 59.0186 218.71 59.0186H232.921C234.736 59.0186 236.212 57.5235 236.212 55.6833V55.6745C236.212 53.8344 234.736 52.3392 232.921 52.3392H218.71ZM228.032 31.6553L211.212 44.9609V36.0345C211.212 34.9551 211.404 33.9466 211.805 33.0088C212.207 32.0622 212.748 31.2483 213.429 30.5583C214.11 29.8594 214.904 29.3197 215.812 28.9127C216.72 28.5146 217.688 28.3112 218.71 28.3112H227.404C228.12 28.3112 228.643 28.4173 228.966 28.6296C229.289 28.842 229.464 29.1074 229.481 29.4347C229.499 29.762 229.377 30.1248 229.115 30.5317C228.844 30.9387 228.486 31.3102 228.032 31.6553ZM256.379 21.6406C258.579 21.6406 260.56 21.9945 262.35 22.7022C264.131 23.41 265.658 24.4274 266.924 25.7544C268.19 27.0814 269.176 28.665 269.883 30.5052C270.581 32.3453 270.931 34.3801 270.931 36.6095V52.3314H293.637C295.112 52.3314 295.933 52.0572 296.081 51.4998C296.23 50.9425 295.68 50.2082 294.431 49.2793L278.684 37.1325C276.869 35.7082 275.681 34.1069 275.132 32.3198C274.582 30.5328 274.573 28.8519 275.105 27.2771C275.638 25.7024 276.677 24.3665 278.23 23.2783C279.784 22.1813 281.757 21.6328 284.14 21.6328H303.981C305.797 21.6328 307.272 23.1279 307.272 24.9681V24.9769C307.272 26.8171 305.797 28.3122 303.981 28.3122H284.14C283.494 28.3122 282.927 28.4007 282.438 28.5688C281.949 28.7457 281.608 28.9846 281.416 29.2853C281.224 29.595 281.216 29.9577 281.39 30.3824C281.556 30.807 281.966 31.267 282.612 31.7625L298.298 43.803C300.114 45.1832 301.354 46.7579 302.017 48.5273C302.68 50.2966 302.794 51.951 302.357 53.5081C301.921 55.0651 300.961 56.3656 299.486 57.4272C298.01 58.48 296.055 59.0108 293.637 59.0108H269.824V59.0098H264.34V36.6095C264.34 34.1501 263.607 32.1595 262.149 30.6202C260.691 29.0897 258.771 28.32 256.379 28.32H249.728C248.287 28.32 247.205 28.7447 246.489 29.5851C245.773 30.4256 245.407 31.6199 245.407 33.1592V55.6833C245.407 57.5235 243.932 59.0186 242.116 59.0186H242.107C240.292 59.0186 238.816 57.5235 238.816 55.6833V33.1592C238.816 31.5491 239.07 30.0363 239.585 28.6385C240.1 27.2407 240.824 26.0198 241.776 24.9847C242.718 23.9497 243.871 23.1357 245.215 22.5342C246.559 21.9414 248.069 21.6406 249.736 21.6406H256.379Z" fill="url(#paint1_linear_455_90)"/>
<defs>
<linearGradient id="paint0_linear_455_90" x1="4.06982e-07" y1="38.0231" x2="67.2297" y2="38.0231" gradientUnits="userSpaceOnUse">
<stop stop-color="#F41B3B"/>
<stop offset="1" stop-color="#1884F7"/>
</linearGradient>
<linearGradient id="paint1_linear_455_90" x1="76.2461" y1="40.3345" x2="307.272" y2="40.3345" gradientUnits="userSpaceOnUse">
<stop stop-color="#F41B3B"/>
<stop offset="1" stop-color="#1884F7"/>
</linearGradient>
</defs>
</svg>
