<svg width="20" height="20" viewBox="0 0 20 20" fill="none" xmlns="http://www.w3.org/2000/svg">
<path fill-rule="evenodd" clip-rule="evenodd" d="M3.525 2.4987C2.98192 2.4987 2.54167 2.93895 2.54167 3.48203V16.5154C2.54167 17.0584 2.98192 17.4987 3.525 17.4987H16.5583C17.1014 17.4987 17.5417 17.0584 17.5417 16.5154V3.48203C17.5417 2.93895 17.1014 2.4987 16.5583 2.4987H3.525ZM0.875 3.48203C0.875 2.01848 2.06145 0.832031 3.525 0.832031H16.5583C18.0219 0.832031 19.2083 2.01848 19.2083 3.48203V16.5154C19.2083 17.9789 18.0219 19.1654 16.5583 19.1654H3.525C2.06144 19.1654 0.875 17.9789 0.875 16.5154V3.48203Z" fill="#807E81"/>
<path fill-rule="evenodd" clip-rule="evenodd" d="M5.8763 0.832031C6.33654 0.832031 6.70964 1.20513 6.70964 1.66536V18.332C6.70964 18.7923 6.33654 19.1654 5.8763 19.1654C5.41606 19.1654 5.04297 18.7923 5.04297 18.332V1.66536C5.04297 1.20513 5.41606 0.832031 5.8763 0.832031Z" fill="#807E81"/>
<path fill-rule="evenodd" clip-rule="evenodd" d="M14.2083 0.832031C14.6686 0.832031 15.0417 1.20513 15.0417 1.66536V18.332C15.0417 18.7923 14.6686 19.1654 14.2083 19.1654C13.7481 19.1654 13.375 18.7923 13.375 18.332V1.66536C13.375 1.20513 13.7481 0.832031 14.2083 0.832031Z" fill="#807E81"/>
<path fill-rule="evenodd" clip-rule="evenodd" d="M0.875 9.9974C0.875 9.53716 1.2481 9.16406 1.70833 9.16406H18.375C18.8352 9.16406 19.2083 9.53716 19.2083 9.9974C19.2083 10.4576 18.8352 10.8307 18.375 10.8307H1.70833C1.2481 10.8307 0.875 10.4576 0.875 9.9974Z" fill="#807E81"/>
<path fill-rule="evenodd" clip-rule="evenodd" d="M0.875 5.83333C0.875 5.3731 1.2481 5 1.70833 5H5.875C6.33524 5 6.70833 5.3731 6.70833 5.83333C6.70833 6.29357 6.33524 6.66667 5.875 6.66667H1.70833C1.2481 6.66667 0.875 6.29357 0.875 5.83333Z" fill="#807E81"/>
<path fill-rule="evenodd" clip-rule="evenodd" d="M0.875 14.1654C0.875 13.7051 1.2481 13.332 1.70833 13.332H5.875C6.33524 13.332 6.70833 13.7051 6.70833 14.1654C6.70833 14.6256 6.33524 14.9987 5.875 14.9987H1.70833C1.2481 14.9987 0.875 14.6256 0.875 14.1654Z" fill="#807E81"/>
<path fill-rule="evenodd" clip-rule="evenodd" d="M13.375 14.1654C13.375 13.7051 13.7481 13.332 14.2083 13.332H18.375C18.8352 13.332 19.2083 13.7051 19.2083 14.1654C19.2083 14.6256 18.8352 14.9987 18.375 14.9987H14.2083C13.7481 14.9987 13.375 14.6256 13.375 14.1654Z" fill="#807E81"/>
<path fill-rule="evenodd" clip-rule="evenodd" d="M13.375 5.83333C13.375 5.3731 13.7481 5 14.2083 5H18.375C18.8352 5 19.2083 5.3731 19.2083 5.83333C19.2083 6.29357 18.8352 6.66667 18.375 6.66667H14.2083C13.7481 6.66667 13.375 6.29357 13.375 5.83333Z" fill="#807E81"/>
</svg>
