<svg width="68" height="77" viewBox="0 0 68 77" fill="none" xmlns="http://www.w3.org/2000/svg">
<path fill-rule="evenodd" clip-rule="evenodd" d="M10.7923 3.89649L10.8072 3.90657L10.94 3.98348L10.9418 3.98453L61.8614 33.7611L61.9373 33.8123L62.0257 33.8507C63.7939 34.7512 64.0862 36.6536 64.0862 37.8206C64.0862 40.0807 62.4765 41.5764 61.3992 42.3216L10.9333 72.0705L10.93 72.0724L10.8587 72.1136L10.7933 72.1578C10.0484 72.6611 8.97666 72.8997 8.33426 72.8997C7.68485 72.8997 6.62385 72.6621 5.87883 72.1603L5.87517 72.1578L5.74257 72.0647L5.59063 71.9877C4.19335 71.2834 3.12656 69.4385 3.12656 67.6064V8.44C3.12656 6.13133 4.80388 4.624 5.87504 3.89728C6.59896 3.41098 7.4454 3.15527 8.33426 3.15527C9.22484 3.15527 10.0789 3.41189 10.7923 3.89649ZM67.2297 37.8206C67.2297 34.9087 65.9927 32.3242 63.439 31.0276L12.5218 1.26613C11.265 0.421084 9.80259 0 8.33426 0C6.8689 0 5.40134 0.424258 4.14181 1.27517C1.68161 2.93157 0 5.46074 0 8.44V67.6064C0 70.5365 1.63908 73.4961 4.16782 74.7887C5.42986 75.6317 7.08063 76.0464 8.34277 76.0464C9.61056 76.0464 11.2596 75.6282 12.5303 74.7802L63.0755 44.9938L63.0883 44.9852C65.5388 43.3295 67.2297 40.8007 67.2297 37.8206Z" fill="url(#paint0_linear_455_111)"/>
<path d="M26.3047 27.8477H33.053C35.1312 27.8477 36.9486 28.2721 38.4895 29.121C40.0304 29.9699 41.2236 31.1552 42.0612 32.6849C42.8988 34.2145 43.3176 35.9684 43.3176 37.9705C43.3176 39.9647 42.8988 41.7266 42.0612 43.2562C41.2236 44.7859 40.0383 45.9711 38.4895 46.8201C36.9486 47.669 35.1312 48.0934 33.053 48.0934H26.3047V27.8477V27.8477ZM32.887 44.4575C35.0443 44.4575 36.6879 43.8809 37.8178 42.7196C38.9478 41.5584 39.5168 39.9727 39.5168 37.9625C39.5168 35.9444 38.9478 34.3587 37.8178 33.2054C36.68 32.0442 35.0364 31.4675 32.887 31.4675H30.0739V44.4655H32.887V44.4575Z" fill="white"/>
<path d="M21.1233 37.7004V37.6524C22.1664 37.276 22.9961 36.6753 23.6045 35.8585C24.2209 35.0416 24.5291 34.0565 24.5291 32.9033C24.5291 31.7901 24.2367 30.805 23.6519 29.9481C23.0593 29.0912 22.2691 28.4345 21.2813 27.97C20.2857 27.5135 19.1794 27.2812 17.9783 27.2812H9.88672V48.0716H17.9783C19.1794 48.0716 20.2857 47.8393 21.2813 47.3829C22.2691 46.9184 23.0593 46.2616 23.6519 45.4047C24.2367 44.5478 24.5291 43.5627 24.5291 42.4496C24.5291 41.2963 24.2209 40.3113 23.6045 39.4944C22.9961 38.6775 22.1664 38.0769 21.1233 37.7004ZM13.656 30.757H17.8361C18.7448 30.757 19.456 30.9972 19.9696 31.4778C20.4832 31.9583 20.7361 32.5829 20.7361 33.3598C20.7361 34.1286 20.4753 34.7613 19.9538 35.2498C19.4323 35.7383 18.6895 35.9866 17.7255 35.9866H13.656V30.757V30.757ZM19.9696 43.8751C19.456 44.3556 18.7448 44.5959 17.8361 44.5959H13.656V39.3662H17.7255C18.6895 39.3662 19.4323 39.6145 19.9538 40.103C20.4753 40.5916 20.7361 41.2242 20.7361 41.9931C20.7361 42.7699 20.4832 43.3946 19.9696 43.8751Z" fill="white"/>
<defs>
<linearGradient id="paint0_linear_455_111" x1="4.06982e-07" y1="38.0231" x2="67.2297" y2="38.0231" gradientUnits="userSpaceOnUse">
<stop stop-color="#F41B3B"/>
<stop offset="1" stop-color="#1884F7"/>
</linearGradient>
</defs>
</svg>
